<svg viewBox="0 0 15 15" fill="none" xmlns="http://www.w3.org/2000/svg"><path d="M4.667 1.917a.75.75 0 0 1 .75.75v8.855l1.386-1.385a.75.75 0 0 1 1.06 1.06l-2.666 2.667-.022.02-.01.009a1 1 0 0 1-.098.073q-.03.018-.063.033l-.06.03a.75.75 0 0 1-.557 0l-.04-.021q-.043-.019-.081-.042a1 1 0 0 1-.113-.087l-.016-.015-2.667-2.667a.75.75 0 0 1 1.06-1.06l1.387 1.386V2.667a.75.75 0 0 1 .75-.75M14 7.25a.75.75 0 0 1 0 1.5H7.333a.75.75 0 0 1 0-1.5zm-2-2.667a.75.75 0 0 1 0 1.5H7.333a.75.75 0 0 1 0-1.5zm-1.924-2.662a.75.75 0 0 1 0 1.492L10 3.417H7.333a.75.75 0 0 1 0-1.5H10zM.01.01H0V0h.01z" fill="currentColor"/></svg>