<svg viewBox="0 0 16 16" fill="none" xmlns="http://www.w3.org/2000/svg"><path d="M10.137 8.136a.75.75 0 0 1 1.06 0l2.667 2.667.018.02.014.015a.75.75 0 0 1 .132.774l-.02.04q-.019.043-.042.081a1 1 0 0 1-.087.113l-.015.017-2.667 2.666a.75.75 0 1 1-1.06-1.06l1.384-1.386H2.668a.75.75 0 0 1 0-1.5h8.856l-1.386-1.387a.75.75 0 0 1 0-1.06M4.804 1.47a.75.75 0 0 1 1.06 1.06L4.478 3.916h8.856l.076.004a.751.751 0 0 1 0 1.492l-.076.004H4.478l1.386 1.387a.75.75 0 0 1-1.06 1.06L2.137 5.197A.8.8 0 0 1 2 5.004c-.008-.017-.02-.032-.026-.05-.01-.022-.014-.045-.02-.067a.8.8 0 0 1-.037-.221q.001-.121.04-.23.006-.026.015-.051l.004-.01q.014-.031.032-.062a.8.8 0 0 1 .129-.177zm-2.794.54H2V2h.01z" fill="currentColor"/></svg>