<svg viewBox="0 0 16 16" fill="none" xmlns="http://www.w3.org/2000/svg">
<path d="M10.5292 13.3486C10.9036 13.1717 11.3511 13.3318 11.5283 13.7061C11.705 14.0803 11.5449 14.527 11.1708 14.7041C9.39596 15.5435 7.36018 15.6452 5.51069 14.9863C5.12074 14.8472 4.91771 14.4184 5.05659 14.0283C5.19567 13.6383 5.62452 13.4344 6.0146 13.5732C7.4899 14.0987 9.11345 14.0181 10.5292 13.3486ZM1.58784 9.97949C1.96772 9.81437 2.40905 9.98829 2.57417 10.3682C2.90638 11.1324 3.39713 11.8181 4.01264 12.3799C4.31814 12.6592 4.33958 13.1337 4.06049 13.4395C3.78127 13.745 3.30676 13.7663 3.00092 13.4873C2.22947 12.7832 1.61557 11.9237 1.19917 10.9658C1.03407 10.586 1.20804 10.1447 1.58784 9.97949ZM7.99995 0.583008C9.43869 0.582772 10.8465 1.00136 12.0517 1.78711C13.257 2.57298 14.2078 3.6931 14.788 5.00977C15.3681 6.32638 15.5527 7.78346 15.3193 9.20312C15.0858 10.6228 14.4447 11.9443 13.4736 13.0059C13.194 13.3115 12.7196 13.3323 12.414 13.0527C12.1086 12.7731 12.0867 12.2987 12.3662 11.9932C13.1409 11.1463 13.6535 10.0925 13.8398 8.95996C14.026 7.82745 13.8787 6.66457 13.416 5.61426C12.9531 4.56391 12.1938 3.67086 11.2324 3.04395C10.2709 2.41708 9.14776 2.0828 7.99995 2.08301C7.58582 2.08298 7.25002 1.74716 7.24995 1.33301C7.25012 0.919025 7.58591 0.583113 7.99995 0.583008ZM8.02631 4.58398C8.03251 4.5842 8.03868 4.58459 8.04487 4.58496C8.08352 4.58724 8.12129 4.59267 8.15815 4.60059C8.19703 4.60894 8.235 4.62117 8.27241 4.63574C8.27912 4.63836 8.2863 4.63977 8.29292 4.64258C8.37916 4.67909 8.45991 4.73252 8.53022 4.80273L11.1962 7.46973C11.4891 7.76262 11.4891 8.23738 11.1962 8.53027C10.9033 8.82281 10.4285 8.82305 10.1357 8.53027L8.74995 7.14453V10.666L8.74604 10.7432C8.70757 11.1213 8.38822 11.416 7.99995 11.416C7.61169 11.416 7.29232 11.1213 7.25385 10.7432L7.24995 10.666V7.14258L5.86323 8.53027C5.57037 8.82292 5.09552 8.82294 4.80268 8.53027C4.5102 8.23742 4.5101 7.76252 4.80268 7.46973L7.46967 4.80273L7.52631 4.75098C7.53613 4.74298 7.54745 4.73692 7.55756 4.72949C7.57403 4.71741 7.5909 4.70605 7.60835 4.69531C7.63253 4.68045 7.65719 4.66714 7.68256 4.65527C7.69881 4.64765 7.71551 4.64123 7.73237 4.63477C7.75969 4.62432 7.78723 4.61553 7.81538 4.6084C7.84078 4.60195 7.86616 4.5946 7.89252 4.59082C7.89708 4.59017 7.90163 4.58944 7.9062 4.58887C7.9369 4.58504 7.96821 4.58301 7.99995 4.58301C8.00876 4.58301 8.01758 4.58368 8.02631 4.58398ZM0.954048 5.68262C1.08344 5.28941 1.50708 5.07513 1.90034 5.2041C2.2938 5.33353 2.50827 5.7579 2.37885 6.15137C2.1904 6.72437 2.09049 7.32361 2.08295 7.92676C2.07739 8.3406 1.73713 8.67216 1.32319 8.66699C0.90948 8.66141 0.577966 8.321 0.582954 7.90723C0.592436 7.15127 0.717844 6.40079 0.954048 5.68262ZM3.19917 2.34766C3.51488 2.07952 3.98864 2.11788 4.25678 2.43359C4.52447 2.74931 4.48542 3.22223 4.16987 3.49023C3.98391 3.64819 3.80856 3.81836 3.6435 3.99805C3.36333 4.30292 2.88797 4.32296 2.58295 4.04297C2.278 3.76278 2.25794 3.28745 2.53803 2.98242C2.74488 2.75725 2.96613 2.5456 3.19917 2.34766ZM2.00971 2.00977H1.99995V2H2.00971V2.00977Z" fill="#D4D4D4"/>
</svg>
