<svg viewBox="0 0 48 48" fill="none" xmlns="http://www.w3.org/2000/svg"><path d="M34.23 30.716a41 41 0 0 1-1.703 1.811c-8.592 8.592-19.355 11.757-24.042 7.071-3.213-3.213-2.735-9.282.652-15.55m4.642-6.597a41 41 0 0 1 1.777-1.895C24.148 6.966 34.912 3.8 39.598 8.487c3.215 3.214 2.734 9.29-.659 15.562m-6.412-8.491c8.591 8.591 11.757 19.355 7.071 24.041s-15.45 1.52-24.042-7.071C6.965 23.936 3.8 13.172 8.486 8.485s15.45-1.52 24.04 7.072M26 24a2 2 0 1 1-4 0 2 2 0 0 1 4 0" stroke="currentColor" stroke-width="2" stroke-linecap="round" stroke-linejoin="round"/></svg>