<svg width="16" height="16" viewBox="0 0 16 16" fill="none" xmlns="http://www.w3.org/2000/svg"><path d="M12.667 9.917a.75.75 0 0 1 .75.75v2.19l.72-.72a.75.75 0 1 1 1.06 1.06l-2 2a.7.7 0 0 1-.244.161q-.046.018-.095.03l-.043.013-.017.003a1 1 0 0 1-.131.013l-.077-.004q-.028-.003-.056-.009l-.016-.003-.045-.013a.74.74 0 0 1-.336-.19l-2-2a.75.75 0 0 1 1.06-1.061l.72.72v-2.19a.75.75 0 0 1 .75-.75m.872-6.657a2.084 2.084 0 0 1 1.877 2.073v3.334a.75.75 0 0 1-1.5 0V5.333a.58.58 0 0 0-.469-.571l-.114-.012H2.666a.584.584 0 0 0-.583.583v5.334l.012.114a.58.58 0 0 0 .571.469H8a.75.75 0 0 1 0 1.5H2.666a2.084 2.084 0 0 1-2.073-1.877l-.01-.206V5.333A2.084 2.084 0 0 1 2.666 3.25h10.667zM8 5.917a2.084 2.084 0 1 1 0 4.168 2.084 2.084 0 0 1 0-4.168M4.007 7.25a.75.75 0 0 1 0 1.5H4a.75.75 0 0 1 0-1.5zm8 0a.75.75 0 0 1 0 1.5H12a.75.75 0 0 1 0-1.5zM8 7.417a.583.583 0 1 0 0 1.167.583.583 0 0 0 0-1.167M2.01 2.01H2V2h.01z" fill="currentColor"/></svg>