<svg viewBox="0 0 12 12" fill="none" xmlns="http://www.w3.org/2000/svg"><g clip-path="url(#a)" stroke="currentColor" stroke-width="1.5" stroke-linecap="round" stroke-linejoin="round"><path d="M6 9.5H3.8a.78.78 0 0 1-.566-.244.85.85 0 0 1-.234-.59V5.334c0-.22.084-.433.234-.589A.78.78 0 0 1 3.8 4.5h6.4c.212 0 .416.088.566.244s.234.368.234.59v1.583"/><path d="M7 7.5a.5.5 0 1 0 0-1 .5.5 0 0 0 0 1M1.241 7A.77.77 0 0 1 1 6.442V3.288a.77.77 0 0 1 .241-.557.84.84 0 0 1 .583-.231h6.593c.219 0 .428.083.583.23M8 9.5 9.5 11 11 9.5M9.5 8v3"/></g><defs><clipPath id="a"><path fill="#fff" d="M0 0h12v12H0z"/></clipPath></defs></svg>