<svg viewBox="0 0 14 15" fill="none" xmlns="http://www.w3.org/2000/svg"><path d="M7.238 12.98a.625.625 0 0 1 1.082.624 1.96 1.96 0 0 1-3.391 0 .625.625 0 0 1 1.082-.624.71.71 0 0 0 1.227 0M6.625 0a4.625 4.625 0 0 1 4.625 4.625c0 1.434.224 2.33.52 2.957.297.628.686 1.035 1.13 1.492l.013.015a1.29 1.29 0 0 1 .227 1.391 1.29 1.29 0 0 1-1.182.77H1.291a1.293 1.293 0 0 1-.953-2.162l.013-.014c.442-.457.83-.863 1.128-1.492C1.775 6.955 2 6.059 2 4.625A4.626 4.626 0 0 1 6.625 0m0 1.25A3.377 3.377 0 0 0 3.25 4.625c0 1.565-.246 2.655-.642 3.491-.39.827-.91 1.36-1.348 1.814a.04.04 0 0 0-.009.021l.003.025a.04.04 0 0 0 .015.017l.023.007h10.666l.022-.007a.04.04 0 0 0 .016-.017.04.04 0 0 0-.007-.045c-.44-.454-.958-.988-1.348-1.815C10.245 7.28 10 6.19 10 4.625A3.377 3.377 0 0 0 6.625 1.25" fill="currentColor"/></svg>