<svg width="26" height="26" viewBox="0 0 26 26" fill="none" xmlns="http://www.w3.org/2000/svg"><path d="M11.123 22.75a2.168 2.168 0 0 0 3.753 0m.2-20.243A6.5 6.5 0 0 0 6.5 8.667c0 4.874-1.528 6.452-2.968 7.937a1.083 1.083 0 0 0 .802 1.813h17.333a1.084 1.084 0 0 0 .802-1.813 10 10 0 0 1-.634-.72" stroke="#a3a3a3" stroke-width="1.5" stroke-linecap="round" stroke-linejoin="round"/><path d="M19.5 11.917a3.25 3.25 0 1 0 0-6.5 3.25 3.25 0 0 0 0 6.5" stroke="currentColor" stroke-width="1.5" stroke-linecap="round" stroke-linejoin="round"/></svg>