<svg width="14" height="14" viewBox="0 0 14 14" fill="none" xmlns="http://www.w3.org/2000/svg"><path d="M4.75 2.667c.329 0 .645.115.897.321l.105.094.094.104c.206.252.321.57.321.898v3.25h3.25c.329 0 .646.114.898.32l.103.095.095.104c.206.252.32.568.32.897v3.334A1.417 1.417 0 0 1 9.417 13.5h-8A1.42 1.42 0 0 1 0 12.084v-8a1.42 1.42 0 0 1 1.417-1.417zM1.5 12h3.167V8.834H1.5zm4.667 0h3.166V8.834H6.167zM1.5 7.334h3.167V4.167H1.5zM12.083 0c.782 0 1.417.635 1.417 1.417V4.75c0 .782-.635 1.417-1.417 1.417H8.75A1.417 1.417 0 0 1 7.333 4.75V1.417C7.333.635 7.968 0 8.75 0zm-3.25 4.667H12V1.5H8.833zM.76.76H.75V.75h.01z" fill="currentColor"/></svg>