<svg width="14" height="14" viewBox="0 0 14 14" fill="none" xmlns="http://www.w3.org/2000/svg"><path d="M3.817 2.952 7 1.167l3.182 1.785-1.166.661L7 2.486 4.987 3.613zm6.365 2.256-1.166-.661L7 5.675 4.987 4.547l-1.17.66v1.32l2.01 1.128v2.252L7 10.568l1.17-.661V7.655l2.012-1.128zm0 3.574V7.46l-1.166.661v1.32zm.833.467-2.012 1.125v1.322l3.182-1.79v-3.57l-1.17.658zM9.845 4.08l1.167.661v1.32l1.173-.659V4.08l-1.17-.661-1.17.664zm-4.018 6.773v1.32l1.173.66 1.17-.66v-1.316L7 11.514l-1.17-.66zM3.817 8.78l1.167.661v-1.32l-1.167-.66v1.321zm2.01-4.699L7 4.741l1.17-.66L7 3.418l-1.17.664zm-2.842.661 1.17-.66-1.167-.662-1.173.664v1.323l1.17.657V4.741m0 2.253-1.17-.658v3.57l3.182 1.79V10.37l-2.01-1.124V6.99z" fill="#f0b90b"/></svg>