<svg width="14" height="14" viewBox="0 0 14 14" fill="none" xmlns="http://www.w3.org/2000/svg"><path d="M11.383 5.857c.182-1.228-.748-1.883-2.029-2.328l.415-1.655-1.011-.251-.404 1.614-.807-.193.41-1.626-1.012-.251-.416 1.66-.643-.152V2.67L4.49 2.319 4.219 3.4s.75.176.737.182c.41.105.48.374.468.585L4.956 6.06l.106.035-.111-.023-.661 2.65c-.047.122-.176.31-.462.233.011.018-.731-.175-.731-.175l-.503 1.152 1.316.327.719.187-.421 1.679 1.011.251.41-1.66.813.21-.415 1.655 1.011.251.415-1.678c1.725.327 3.024.199 3.568-1.363.438-1.257-.024-1.976-.93-2.456.66-.146 1.158-.585 1.287-1.48zm-2.31 3.24c-.31 1.257-2.426.572-3.11.409l.555-2.228c.684.175 2.883.509 2.555 1.813zm.31-3.258c-.28 1.14-2.046.561-2.614.421l.503-2.017c.573.14 2.41.41 2.111 1.596" fill="#f7931a"/></svg>