<svg width="15" height="16" viewBox="0 0 15 16" fill="none" xmlns="http://www.w3.org/2000/svg"><path d="M10.667.583a.75.75 0 0 1 .75.75v.584h1.25c1.15 0 2.083.933 2.083 2.083v9.334c0 1.15-.933 2.083-2.083 2.083H3.333a2.084 2.084 0 0 1-2.083-2.083V4c0-1.15.933-2.083 2.083-2.083h1.25v-.584a.75.75 0 0 1 1.5 0v.584h3.834v-.584a.75.75 0 0 1 .75-.75M2.75 13.334c0 .322.261.583.583.583h9.334a.584.584 0 0 0 .583-.583V7.417H2.75zm.583-9.917A.583.583 0 0 0 2.75 4v1.917h10.5V4a.583.583 0 0 0-.583-.583h-1.25V4a.75.75 0 0 1-1.5 0v-.583H6.083V4a.75.75 0 0 1-1.5 0v-.583zM.01.01H0V0h.01z" fill="currentColor"/></svg>