<svg viewBox="0 0 14 15" fill="none" xmlns="http://www.w3.org/2000/svg"><path d="M9.417 0a.75.75 0 0 1 .75.75v.584h1.25c1.15 0 2.083.933 2.083 2.083v9.334c0 1.15-.933 2.083-2.083 2.083H2.083A2.084 2.084 0 0 1 0 12.751V3.417c0-1.15.933-2.083 2.083-2.083h1.25V.75a.75.75 0 0 1 1.5 0v.584h3.834V.75a.75.75 0 0 1 .75-.75M1.5 12.751c0 .322.261.583.583.583h9.334a.584.584 0 0 0 .583-.583V6.834H1.5zm2.59-2.084a.75.75 0 0 1 0 1.5h-.007a.75.75 0 0 1 0-1.5zm2.667 0a.75.75 0 0 1 0 1.5H6.75a.75.75 0 0 1 0-1.5zm2.667 0a.75.75 0 0 1 0 1.5h-.007a.75.75 0 0 1 0-1.5zM4.09 8a.75.75 0 0 1 0 1.5h-.007a.75.75 0 0 1 0-1.5zm2.667 0a.75.75 0 0 1 0 1.5H6.75a.75.75 0 0 1 0-1.5zm2.667 0a.75.75 0 0 1 0 1.5h-.007a.75.75 0 0 1 0-1.5zM2.083 2.834a.583.583 0 0 0-.583.583v1.917H12V3.417a.583.583 0 0 0-.583-.583h-1.25v.583a.75.75 0 0 1-1.5 0v-.583H4.833v.583a.75.75 0 0 1-1.5 0v-.583z" fill="currentColor"/></svg>