<svg viewBox="0 0 14 14" fill="none" xmlns="http://www.w3.org/2000/svg"><path d="M.75 0a.75.75 0 0 1 .75.75v10.667l.012.114a.58.58 0 0 0 .571.469H12.75a.75.75 0 0 1 0 1.5H2.083A2.083 2.083 0 0 1 .01 11.623L0 11.417V.75A.75.75 0 0 1 .75 0m10.606 1.901a.75.75 0 0 1 1.456.364c-.182.725-.624 1.96-1.247 3.029-.312.534-.69 1.064-1.131 1.468-.438.4-1.008.738-1.684.738-1.127 0-1.67-.902-1.957-1.334-.378-.567-.503-.666-.709-.666-.138 0-.305.06-.518.295-.219.242-.43.611-.624 1.076-.388.933-.621 2.024-.797 2.728a.75.75 0 0 1-1.456-.365c.158-.629.424-1.873.869-2.94.222-.534.513-1.082.897-1.506C4.847 4.356 5.388 4 6.084 4c1.127 0 1.67.902 1.957 1.334.378.568.503.666.709.666.157 0 .38-.08.67-.346.288-.263.578-.65.85-1.116.542-.93.935-2.03 1.086-2.637" fill="currentColor"/></svg>