<svg viewBox="0 0 14 14" fill="none" xmlns="http://www.w3.org/2000/svg"><path d="M.75 0a.75.75 0 0 1 .75.75v10.667l.012.114a.584.584 0 0 0 .571.469H12.75a.75.75 0 0 1 0 1.5H2.083A2.084 2.084 0 0 1 .01 11.623L0 11.417V.75A.75.75 0 0 1 .75 0m4 1.334a.75.75 0 0 1 .75.75v1.92a1.416 1.416 0 0 1 1.334 1.413v2.666c0 .754-.59 1.369-1.334 1.412v.588a.75.75 0 0 1-1.5 0v-.587A1.416 1.416 0 0 1 2.674 8.23l-.007-.146V5.417c0-.754.59-1.37 1.333-1.413v-1.92a.75.75 0 0 1 .75-.75M10.084 0a.75.75 0 0 1 .75.75v.588a1.416 1.416 0 0 1 1.333 1.413v4c0 .754-.59 1.368-1.333 1.411v1.255a.75.75 0 0 1-1.5 0V8.162A1.415 1.415 0 0 1 8 6.751v-4c0-.754.59-1.37 1.334-1.413V.75a.75.75 0 0 1 .75-.75M4.167 8h1.167V5.5H4.76l-.01.001-.01-.001h-.573zM9.5 6.667h1.167V2.834H9.5z" fill="currentColor"/></svg>