<svg viewBox="0 0 16 16" fill="none" xmlns="http://www.w3.org/2000/svg"><path d="M2 1.25a.75.75 0 0 1 .75.75v10.667l.012.114a.58.58 0 0 0 .571.469H14a.75.75 0 0 1 0 1.5H3.333a2.083 2.083 0 0 1-2.073-1.877l-.01-.206V2A.75.75 0 0 1 2 1.25m10.121 3.16c.158-.032.32-.029.475.01l.151.05.144.072q.136.082.245.201l.098.126.079.139c.068.144.104.302.104.463v5.195A1.42 1.42 0 0 1 12 12.083H5.334a1.42 1.42 0 0 1-1.417-1.417V7.471l.005-.107c.024-.247.134-.48.311-.658l1.334-1.334c.1-.1.22-.18.351-.235l.1-.035q.155-.047.316-.047l.106.005q.106.01.208.042l.101.035.096.046q.141.075.255.19L9 7.27l2.567-2.566c.152-.151.345-.254.554-.296M9.767 8.625a1.1 1.1 0 0 1-.767.32 1.1 1.1 0 0 1-.767-.319v-.001l-1.9-1.9-.916.918v2.939h6.5V6.477z" fill="currentColor"/></svg>