<svg viewBox="0 0 16 16" fill="none" xmlns="http://www.w3.org/2000/svg"><path d="M2 1.25a.75.75 0 0 1 .75.75v10.667l.012.114a.58.58 0 0 0 .571.469H14a.75.75 0 0 1 0 1.5H3.333a2.083 2.083 0 0 1-2.073-1.877l-.01-.206V2A.75.75 0 0 1 2 1.25m4.812 3.34A1.42 1.42 0 0 1 8.084 6v4.666c0 .782-.635 1.417-1.417 1.417H5.334a1.417 1.417 0 0 1-1.417-1.417V6c0-.782.635-1.417 1.417-1.417h1.333zm5.333-2A1.42 1.42 0 0 1 13.417 4v6.666c0 .782-.635 1.417-1.417 1.417h-1.333a1.417 1.417 0 0 1-1.417-1.417V4c0-.782.635-1.417 1.417-1.417H12zm-6.728 7.993h1.167v-4.5H5.417zm5.333 0h1.167v-6.5H10.75z" fill="currentColor"/></svg>