<svg viewBox="0 0 42 42" fill="none" xmlns="http://www.w3.org/2000/svg"><path d="m15 21 4 4 9-9m4.802-9.003A4.07 4.07 0 0 0 35 9.198l3.49 1.446a4.065 4.065 0 0 1 2.2 5.312l-1.444 3.488a4.06 4.06 0 0 0 .001 3.113l1.442 3.487a4.067 4.067 0 0 1-2.2 5.313L35 32.802a4.07 4.07 0 0 0-2.201 2.197l-1.446 3.491a4.065 4.065 0 0 1-5.312 2.2l-3.487-1.445a4.07 4.07 0 0 0-3.11.003l-3.491 1.444a4.065 4.065 0 0 1-5.308-2.2l-1.447-3.49A4.07 4.07 0 0 0 7.002 32.8l-3.49-1.446a4.065 4.065 0 0 1-2.202-5.309l1.445-3.488a4.07 4.07 0 0 0-.002-3.11L1.31 15.954a4.066 4.066 0 0 1 2.2-5.314L7 9.195A4.07 4.07 0 0 0 9.199 7l1.445-3.49a4.065 4.065 0 0 1 5.312-2.2l3.488 1.444a4.06 4.06 0 0 0 3.11-.002l3.492-1.44a4.065 4.065 0 0 1 5.31 2.2l1.447 3.491z" stroke="currentColor" stroke-width="2" stroke-linecap="round" stroke-linejoin="round"/></svg>