<svg viewBox="0 0 48 48" fill="none" xmlns="http://www.w3.org/2000/svg"><path d="M24 18 8.128 28.317c-1.376.894-2.064 1.341-2.302 1.908a2 2 0 0 0 0 1.55M24 18l15.872 10.317c1.376.894 2.064 1.341 2.302 1.908a2 2 0 0 1 0 1.55M24 18V5m0 25L8.128 19.683c-1.376-.894-2.064-1.341-2.302-1.908a2 2 0 0 1 0-1.55M24 30l15.872-10.317c1.376-.894 2.064-1.341 2.302-1.908a2 2 0 0 0 0-1.55M24 30v13m18.544-11.054-16.8 10.92c-.631.41-.947.616-1.287.696-.3.07-.613.07-.914 0-.34-.08-.656-.285-1.287-.696l-16.8-10.92c-.532-.345-.798-.518-.99-.749a2 2 0 0 1-.378-.694C4 30.215 4 29.898 4 29.263V18.737c0-.635 0-.952.088-1.24a2 2 0 0 1 .377-.694c.193-.23.459-.404.991-.75l16.8-10.92c.631-.41.947-.615 1.287-.695a2 2 0 0 1 .914 0c.34.08.656.285 1.287.696l16.8 10.92c.532.345.798.518.99.749a2 2 0 0 1 .378.694c.088.288.088.605.088 1.24v10.526c0 .635 0 .952-.088 1.24a2 2 0 0 1-.377.694c-.193.23-.459.404-.991.75" stroke="currentColor" stroke-width="2" stroke-linecap="round" stroke-linejoin="round"/></svg>