<svg viewBox="0 0 16 16" fill="none" xmlns="http://www.w3.org/2000/svg"><path d="M14.667 9.25a.75.75 0 0 1 .746.674l.004.076v.667a2.75 2.75 0 0 1-2.75 2.75h-1.523l.72.72a.75.75 0 1 1-1.061 1.06l-2-2a.8.8 0 0 1-.127-.176q-.02-.033-.035-.068a.75.75 0 0 1-.002-.568l.004-.01q.014-.031.032-.062a.8.8 0 0 1 .128-.176l2-2a.75.75 0 0 1 1.06 1.06l-.72.72h1.524a1.25 1.25 0 0 0 1.25-1.25V10l.004-.076a.75.75 0 0 1 .746-.674M5.333.583a4.75 4.75 0 1 1 0 9.5 4.75 4.75 0 0 1 0-9.5m0 1.5a3.25 3.25 0 1 0 .001 6.501 3.25 3.25 0 0 0-.001-6.501m.077 1.17A.75.75 0 0 1 6.084 4v2.667a.75.75 0 0 1-1.5 0V4.745a.75.75 0 0 1 .083-1.495h.667z" fill="currentColor"/></svg>