<svg width="16" height="16" viewBox="0 0 16 16" fill="none" xmlns="http://www.w3.org/2000/svg"><path d="M13.47 1.47a.75.75 0 1 1 1.06 1.06l-1.732 1.732A6.06 6.06 0 0 1 14.084 8a6.05 6.05 0 0 1-1.286 3.737l1.732 1.733a.75.75 0 1 1-1.06 1.06l-1.733-1.732A6.06 6.06 0 0 1 8 14.084a6.06 6.06 0 0 1-3.738-1.286L2.53 14.53a.75.75 0 1 1-1.06-1.06l1.73-1.733A6.06 6.06 0 0 1 1.917 8c0-1.41.48-2.707 1.284-3.738L1.47 2.53a.75.75 0 1 1 1.06-1.06L4.262 3.2A6.06 6.06 0 0 1 8 1.917c1.41 0 2.706.48 3.737 1.284zM8 3.417a4.583 4.583 0 1 0 0 9.167 4.583 4.583 0 0 0 0-9.167" fill="currentColor"/></svg>