<svg width="16" height="16" viewBox="0 0 16 16" fill="none" xmlns="http://www.w3.org/2000/svg"><path d="M12.094 1.256c.214.026.41.145.53.328l2.667 4a1 1 0 0 1 .06.114l.015.039a.73.73 0 0 1-.005.541l-.016.033a1 1 0 0 1-.069.121l-.015.025-6.667 8.667q-.021.027-.046.053a1 1 0 0 1-.088.08l-.037.027a.7.7 0 0 1-.286.118q-.014.004-.029.006a.7.7 0 0 1-.217 0l-.029-.006a.7.7 0 0 1-.198-.065l-.031-.018-.066-.042-.02-.015a.8.8 0 0 1-.141-.138L.739 6.457l-.014-.02a1 1 0 0 1-.07-.122l-.02-.043a.8.8 0 0 1-.05-.226l-.001-.02V6l.004-.081q0-.013.004-.025a1 1 0 0 1 .04-.157l.015-.04a1 1 0 0 1 .063-.113l2.667-4 .055-.075a.75.75 0 0 1 .569-.26h8zM8 12.116 9.65 6.75H6.348zm-1.939-1.2L4.78 6.75H2.857zm3.878-.002 3.204-4.164H11.22zM2.734 5.25H4.87l1.25-2.5H4.402zm3.813 0h2.906l-1.25-2.5h-.406zm4.584 0h2.134L11.6 2.75H9.881zM2.01 2.01H2V2h.01z" fill="currentColor"/></svg>