<svg width="12" height="12" viewBox="0 0 12 12" fill="none" xmlns="http://www.w3.org/2000/svg"><g clip-path="url(#a)"><path d="M10.159 2.185a10 10 0 0 0-2.443-.758.04.04 0 0 0-.04.019 7 7 0 0 0-.303.625 9.1 9.1 0 0 0-2.744 0 6 6 0 0 0-.308-.625.04.04 0 0 0-.04-.018 10 10 0 0 0-2.442.757.03.03 0 0 0-.016.014C.267 4.523-.16 6.789.05 9.029a.04.04 0 0 0 .015.027 10 10 0 0 0 2.997 1.515.04.04 0 0 0 .042-.014q.346-.473.613-.997c.01-.02 0-.045-.021-.053a6.6 6.6 0 0 1-.936-.446.04.04 0 0 1-.004-.064 5 5 0 0 0 .186-.146.04.04 0 0 1 .039-.005c1.964.897 4.09.897 6.03 0a.04.04 0 0 1 .04.005q.09.076.186.146a.04.04 0 0 1-.003.065q-.448.26-.937.445a.04.04 0 0 0-.02.053q.271.525.612.997c.01.013.027.019.042.014a9.9 9.9 0 0 0 3.001-1.514.04.04 0 0 0 .015-.027c.25-2.589-.418-4.837-1.773-6.83a.03.03 0 0 0-.015-.015M4.01 7.665c-.591 0-1.078-.543-1.078-1.209 0-.667.477-1.21 1.078-1.21.606 0 1.088.548 1.079 1.21 0 .667-.478 1.21-1.079 1.21m3.988 0c-.591 0-1.079-.543-1.079-1.209 0-.667.478-1.21 1.079-1.21.605 0 1.088.548 1.078 1.21 0 .667-.473 1.21-1.078 1.21" fill="currentColor"/></g><defs><clipPath id="a"><path fill="#fff" d="M0 0h12v12H0z"/></clipPath></defs></svg>