<svg viewBox="0 0 16 16" fill="none" xmlns="http://www.w3.org/2000/svg">
<path d="M8 0.583008C8.4141 0.583008 8.74982 0.918944 8.75 1.33301V2.58301H11.333C11.7471 2.58301 12.0828 2.91894 12.083 3.33301C12.083 3.74722 11.7472 4.08301 11.333 4.08301H8.75V7.25H9.66699C10.4844 7.25009 11.2686 7.57449 11.8467 8.15234C12.4248 8.7305 12.7499 9.51537 12.75 10.333C12.75 11.1507 12.4248 11.9354 11.8467 12.5137C11.2685 13.0916 10.4845 13.4159 9.66699 13.416H8.75V14.666C8.75 15.0802 8.41421 15.416 8 15.416C7.58579 15.416 7.25 15.0802 7.25 14.666V13.416H4C3.58579 13.416 3.25 13.0802 3.25 12.666C3.25035 12.2521 3.586 11.916 4 11.916H7.25V8.75H6.33301C5.51545 8.74991 4.73147 8.42474 4.15332 7.84668C3.57518 7.26846 3.25 6.48369 3.25 5.66602C3.25017 4.8485 3.57524 4.06441 4.15332 3.48633C4.73147 2.90827 5.51545 2.58309 6.33301 2.58301H7.25V1.33301C7.25018 0.918944 7.5859 0.583008 8 0.583008ZM8.75 11.916H9.66699C10.0868 11.9159 10.4893 11.749 10.7861 11.4521C11.0829 11.1552 11.25 10.7528 11.25 10.333C11.2499 9.91328 11.0829 9.51071 10.7861 9.21387C10.4893 8.91711 10.0867 8.75009 9.66699 8.75H8.75V11.916ZM6.33301 4.08301C5.91328 4.08309 5.51071 4.25012 5.21387 4.54688C4.91709 4.84365 4.75017 5.24632 4.75 5.66602C4.75 6.08587 4.91704 6.48922 5.21387 6.78613C5.51071 7.08289 5.91328 7.24991 6.33301 7.25H7.25V4.08301H6.33301ZM2.00977 2.00977H2V2H2.00977V2.00977Z" fill="#D4D4D4"/>
</svg>
