<svg viewBox="0 0 14 14" fill="none" xmlns="http://www.w3.org/2000/svg"><path d="M6.77 9.883a1.42 1.42 0 0 1 1.272 1.41l-.007.145A1.418 1.418 0 1 1 6.48 9.883l.145-.007zm-.177 1.333a.083.083 0 0 0 0 .153l.032.007.033-.007a.08.08 0 0 0 .044-.044l.007-.032a.085.085 0 0 0-.084-.084zm.178-6a1.42 1.42 0 0 1 1.271 1.41l-.007.145A1.417 1.417 0 1 1 6.48 5.216l.145-.007zm-.178 1.333a.083.083 0 0 0 0 .153l.032.007.033-.007a.08.08 0 0 0 .044-.044l.007-.032a.085.085 0 0 0-.084-.084zm.178-6A1.42 1.42 0 0 1 8.042 1.96l-.007.144A1.418 1.418 0 1 1 6.48.55l.145-.007zm-.178 1.334a.08.08 0 0 0-.051.077c0 .034.021.064.05.076l.033.007.033-.007a.08.08 0 0 0 .044-.044l.007-.032a.085.085 0 0 0-.084-.084z" fill="currentColor"/></svg>