<svg width="14" height="14" viewBox="0 0 14 14" fill="none" xmlns="http://www.w3.org/2000/svg"><path d="M7 1.167v4.31l3.646 1.63z" fill="#8ffcf3"/><path d="m7 1.167-3.646 5.94L7 5.478z" fill="#cabcf8"/><path d="M7 9.902v2.931l3.646-5.045z" fill="#cba7f5"/><path d="M7 12.833v-2.93L3.354 7.787z" fill="#74a0f3"/><path d="m7 9.223 3.646-2.115L7 5.478z" fill="#cba7f5"/><path d="M3.354 7.108 7 9.223V5.478z" fill="#74a0f3"/><path fill-rule="evenodd" clip-rule="evenodd" d="M7 9.222 3.354 7.108 7 1.167l3.646 5.94zM3.596 6.936l3.346-5.451v3.963zm-.05.149 3.396-1.508v3.476zm3.512-1.508v3.476l3.392-1.968zm0-.129 3.346 1.488-3.346-5.451z" fill="#202699"/><path fill-rule="evenodd" clip-rule="evenodd" d="m7 9.855-3.646-2.07L7 12.833l3.646-5.048zM3.763 8.15l3.179 1.809v2.595zm3.295 1.809v2.595l3.18-4.404z" fill="#202699"/></svg>