<svg viewBox="0 0 20 20" fill="none" xmlns="http://www.w3.org/2000/svg"><path d="M2.803 2.803a.75.75 0 0 1 1.06 0l13.333 13.333a.75.75 0 1 1-1.06 1.06l-2.612-2.611a7.9 7.9 0 0 1-2.685.786 7.92 7.92 0 0 1-8.167-4.879 1.42 1.42 0 0 1 0-.985l.01-.026A7.9 7.9 0 0 1 5.168 6.23L2.803 3.863a.75.75 0 0 1 0-1.06M6.24 7.3a6.4 6.4 0 0 0-2.148 2.697 6.42 6.42 0 0 0 3.875 3.587 6.42 6.42 0 0 0 4.425-.133l-1.054-1.054a2.743 2.743 0 0 1-4.088-2.375A2.75 2.75 0 0 1 7.6 8.66zm2.826-2.66a7.914 7.914 0 0 1 8.262 4.867c.118.318.118.667 0 .985l-.01.026a8 8 0 0 1-1.063 1.834.75.75 0 0 1-1.185-.92c.341-.44.62-.922.837-1.434a6.41 6.41 0 0 0-6.663-3.87.751.751 0 0 1-.178-1.488m-.302 5.184A1.25 1.25 0 0 0 9.99 11.25q.093 0 .185-.015zM2.01 2.01H2V2h.01z" fill="currentColor"/></svg>