<svg width="12" height="12" viewBox="0 0 12 12" fill="none" xmlns="http://www.w3.org/2000/svg"><g clip-path="url(#a)" fill="currentColor"><path fill-rule="evenodd" clip-rule="evenodd" d="M6 .148a6 6 0 0 0-1.897 11.694c.3.055.41-.13.41-.289 0-.143-.005-.616-.008-1.117-1.669.363-2.021-.708-2.021-.708-.273-.694-.667-.878-.667-.878-.544-.373.042-.364.042-.364.602.042.919.618.919.618.535.917 1.403.652 1.746.498.054-.388.21-.652.381-.802-1.333-.152-2.734-.666-2.734-2.965 0-.655.235-1.19.619-1.61-.062-.152-.268-.762.058-1.589 0 0 .504-.16 1.65.615A5.8 5.8 0 0 1 6 3.049c.51.003 1.024.07 1.503.202 1.145-.776 1.649-.615 1.649-.615.326.827.12 1.437.059 1.588.384.42.617.956.617 1.611 0 2.305-1.403 2.812-2.74 2.96.215.186.407.552.407 1.111 0 .803-.006 1.45-.006 1.647 0 .16.107.347.412.288A6 6 0 0 0 6 .148"/><path d="M2.272 8.763c-.013.03-.06.039-.103.018-.043-.019-.068-.06-.054-.09.013-.03.06-.039.104-.018.043.019.068.06.053.09m.244.271c-.029.026-.085.014-.123-.028-.04-.042-.046-.098-.017-.124.029-.027.083-.014.123.028.039.041.047.097.017.124m.236.346c-.037.025-.097.001-.134-.052s-.037-.117.001-.143c.037-.026.096-.003.134.05.036.055.036.119-.001.145m.324.334c-.033.036-.103.026-.154-.024-.052-.048-.067-.117-.034-.153.034-.037.104-.026.156.023.052.048.067.117.032.153m.448.194c-.015.047-.082.068-.15.048s-.113-.075-.099-.123c.014-.047.082-.069.15-.048.068.02.113.075.099.123m.491.036c.001.05-.056.09-.128.091-.071.002-.13-.038-.13-.087 0-.05.056-.09.127-.092.072-.001.13.039.13.088m.458-.077c.008.048-.041.098-.112.11-.07.013-.134-.017-.143-.065-.009-.049.042-.098.111-.111.07-.013.135.016.144.066"/></g><defs><clipPath id="a"><path fill="#fff" d="M0 0h12v12H0z"/></clipPath></defs></svg>