<svg viewBox="0 0 28 28" fill="none" xmlns="http://www.w3.org/2000/svg"><g clip-path="url(#a)"><path d="M27.727 14.323c0-.952-.077-1.909-.242-2.845H14.28v5.39h7.562a6.48 6.48 0 0 1-2.798 4.255v3.498h4.511c2.65-2.438 4.172-6.039 4.172-10.298" fill="#4285f4"/><path d="M14.28 28c3.776 0 6.96-1.239 9.28-3.379l-4.511-3.498c-1.255.854-2.876 1.338-4.764 1.338-3.652 0-6.749-2.464-7.86-5.777H1.77v3.606A14 14 0 0 0 14.28 28" fill="#34a853"/><path d="M6.42 16.684a8.4 8.4 0 0 1 0-5.36V7.716H1.77a14.01 14.01 0 0 0 0 12.573z" fill="#fbbc04"/><path d="M14.28 5.541a7.6 7.6 0 0 1 5.37 2.1l3.998-3.998A13.46 13.46 0 0 0 14.28.001 14 14 0 0 0 1.77 7.717l4.65 3.606c1.106-3.318 4.208-5.782 7.86-5.782" fill="#ea4335"/></g><defs><clipPath id="a"><path fill="#fff" d="M0 0h28v28H0z"/></clipPath></defs></svg>