<svg width="16" height="16" viewBox="0 0 16 16" fill="none" xmlns="http://www.w3.org/2000/svg"><path d="M8 0a7.7 7.7 0 0 1 5.353 2.082l-2.284 2.284A4.35 4.35 0 0 0 8 3.166c-2.086 0-3.858 1.407-4.49 3.301v.003a4.8 4.8 0 0 0-.001 3.063h.002c.635 1.893 2.405 3.302 4.492 3.302 1.078 0 2.002-.277 2.719-.764v-.001a3.7 3.7 0 0 0 1.6-2.43H8V6.557h7.546a9.4 9.4 0 0 1 .138 1.626c0 2.433-.87 4.49-2.383 5.883l.002.002C11.977 15.292 10.158 16 8 16a8 8 0 0 1-7.017-4.156l-.132-.25-.2-.428a8 8 0 0 1 0-6.329l.2-.427A8 8 0 0 1 8 0" fill="currentColor"/></svg>