<svg viewBox="0 0 16 16" fill="none" xmlns="http://www.w3.org/2000/svg"><path d="M10.667 3.316a2.68 2.68 0 0 1 2.676 2.565l.065-.001a2.085 2.085 0 0 1 2.026 2.142 2.08 2.08 0 0 1-.65 1.453l-3.06 2.927c-.626.689-1.491 1.015-2.39 1.015H6.665c-.24 0-.315.076-.333.1a1 1 0 0 1-.106.114l-.464.405.1.1a.75.75 0 0 1-1.06 1.061l-4-4a.75.75 0 0 1 1.06-1.06l.146.145L5.18 7.225c.383-.466.95-.642 1.486-.642H8.05a2.684 2.684 0 0 1 2.618-3.267m2.7 4.063a.6.6 0 0 0-.419.16l-.004.004-.37.343q-.046.044-.095.088l-2.336 2.17-.07.055a2.08 2.08 0 0 1-1.406.551H7.333a.75.75 0 0 1 0-1.5h1.334a.584.584 0 0 0 0-1.167h-2c-.24 0-.316.076-.334.1a1 1 0 0 1-.079.09l-3.184 3.07 1.63 1.63.494-.432c.382-.453.942-.624 1.472-.624h2.667c.548 0 .997-.196 1.302-.544l.046-.048 3.067-2.933.003-.003a.585.585 0 0 0-.385-1.01m-2.7-2.563a1.184 1.184 0 0 0 0 2.367c.28 0 .538-.099.74-.262l.118-.11c.2-.211.325-.496.325-.811 0-.653-.53-1.183-1.183-1.184M4 .583a2.75 2.75 0 1 1 0 5.5 2.75 2.75 0 0 1 0-5.5m0 1.5a1.25 1.25 0 1 0 0 2.5 1.25 1.25 0 0 0 0-2.5" fill="currentColor"/></svg>