<svg viewBox="0 0 16 16" fill="none" xmlns="http://www.w3.org/2000/svg">
<path d="M14.667 9.25C15.0552 9.25016 15.3748 9.54566 15.4131 9.92383L15.417 10V10.667C15.4169 11.3962 15.127 12.0957 14.6113 12.6113C14.0957 13.127 13.3962 13.4169 12.667 13.417H11.1436L11.8633 14.1367C12.1562 14.4296 12.1562 14.9044 11.8633 15.1973C11.5704 15.4898 11.0955 15.4901 10.8027 15.1973L8.80273 13.1973C8.74971 13.1442 8.70961 13.0833 8.67578 13.0205C8.66378 12.9982 8.65037 12.9767 8.64062 12.9531C8.61907 12.901 8.604 12.8469 8.59473 12.792C8.58903 12.7582 8.58597 12.7237 8.58496 12.6885C8.58454 12.6738 8.58453 12.6592 8.58496 12.6445C8.58599 12.609 8.58892 12.5742 8.59473 12.54C8.60375 12.4872 8.61827 12.4351 8.63867 12.3848L8.64258 12.375C8.65164 12.3536 8.66387 12.3338 8.6748 12.3135C8.70863 12.2505 8.7496 12.1899 8.80273 12.1367L10.8027 10.1367C11.0956 9.84383 11.5704 9.84383 11.8633 10.1367C12.1562 10.4296 12.1562 10.9044 11.8633 11.1973L11.1436 11.917H12.667C12.9984 11.9169 13.3164 11.7851 13.5508 11.5508C13.7851 11.3164 13.9169 10.9984 13.917 10.667V10L13.9209 9.92383C13.9592 9.54555 14.2786 9.25 14.667 9.25ZM5.33301 0.583008C7.95625 0.583008 10.0828 2.7098 10.083 5.33301C10.083 7.95636 7.95636 10.083 5.33301 10.083C2.7098 10.0828 0.583008 7.95625 0.583008 5.33301C0.583184 2.70991 2.70991 0.583184 5.33301 0.583008ZM5.33301 2.08301C3.53834 2.08318 2.08318 3.53834 2.08301 5.33301C2.08301 7.12782 3.53823 8.58283 5.33301 8.58301C7.12793 8.58301 8.58301 7.12793 8.58301 5.33301C8.58283 3.53823 7.12782 2.08301 5.33301 2.08301ZM5.41016 3.25391C5.78828 3.29238 6.08398 3.61172 6.08398 4V6.66699C6.08381 7.08084 5.74779 7.41664 5.33398 7.41699C4.91988 7.41699 4.58416 7.08106 4.58398 6.66699V4.74512C4.20885 4.70379 3.91699 4.38615 3.91699 4C3.91699 3.58579 4.25278 3.25 4.66699 3.25H5.33398L5.41016 3.25391Z" fill="#D4D4D4"/>
</svg>
