<svg viewBox="0 0 48 48" fill="none" xmlns="http://www.w3.org/2000/svg"><path d="m4 24 19.285 9.642c.262.131.393.197.53.223a1 1 0 0 0 .37 0c.137-.026.268-.092.53-.223L44 24M4 34l19.285 9.642c.262.131.393.197.53.223a1 1 0 0 0 .37 0c.137-.026.268-.092.53-.223L44 34M4 14l19.285-9.642c.262-.131.393-.197.53-.223a1 1 0 0 1 .37 0c.137.026.268.092.53.223L44 14l-19.284 9.642c-.263.131-.394.197-.532.223a1 1 0 0 1-.368 0c-.138-.026-.27-.092-.531-.223z" stroke="currentColor" stroke-width="2" stroke-linecap="round" stroke-linejoin="round"/></svg>