<svg width="20" height="20" viewBox="0 0 20 20" fill="none" xmlns="http://www.w3.org/2000/svg"><path d="M10 2.583a4.085 4.085 0 0 1 4.084 4.083v1.917h.583c1.15 0 2.083.933 2.083 2.083v4.667c0 1.15-.933 2.083-2.083 2.083H5.333a2.083 2.083 0 0 1-2.083-2.083v-4.667c0-1.15.933-2.083 2.083-2.083h.584V6.666A4.084 4.084 0 0 1 10 2.583m-4.667 7.5a.584.584 0 0 0-.583.583v4.667c0 .322.261.583.583.583h9.334c.322 0 .583-.26.583-.583v-4.667a.584.584 0 0 0-.583-.583zm4.667-6a2.584 2.584 0 0 0-2.583 2.583v1.917h5.167V6.666A2.584 2.584 0 0 0 10 4.083M2.01 2.01H2V2h.01z" fill="currentColor"/></svg>