<svg viewBox="0 0 18 36" fill="none" xmlns="http://www.w3.org/2000/svg"><path d="M-.008 18.848c.415-.001.785-.397.778-.833a.83.83 0 0 0-.808-.807c-.432.001-.78.367-.78.822a.8.8 0 0 0 .81.818m1.196-2.555a.48.48 0 0 0-.46.484c0 .255.224.49.464.485a.505.505 0 0 0 .474-.507.464.464 0 0 0-.478-.462m-.726 5.594C.46 21.63.245 21.405 0 21.403c-.24-.002-.471.234-.47.479.002.263.214.486.46.485a.506.506 0 0 0 .473-.48m-.019-1.829c.003-.294-.168-.483-.436-.483-.246 0-.485.246-.481.495a.45.45 0 0 0 .44.463c.28.005.474-.188.477-.475M0 13.797a.476.476 0 0 0-.464.452c-.004.257.214.5.451.504.24.004.48-.255.473-.51a.443.443 0 0 0-.46-.446m2.346 7.262a.48.48 0 0 0 .458-.507.47.47 0 0 0-.462-.45.466.466 0 0 0-.46.474c.003.25.231.487.464.483M.451 16.075c0-.274-.192-.48-.45-.486-.244-.006-.478.244-.473.504.006.264.209.454.483.45a.457.457 0 0 0 .44-.468m1.186 3.275c.007-.286-.176-.5-.43-.5-.25-.002-.476.238-.474.504a.48.48 0 0 0 .462.458c.252.001.435-.19.442-.463m2.127 2.081a.447.447 0 0 0-.458.448.46.46 0 0 0 .453.482c.251 0 .454-.2.458-.453.005-.275-.182-.472-.453-.477m-1.697.517c.006-.263-.18-.472-.429-.48-.243-.01-.475.2-.483.434-.008.246.216.496.452.503.239.008.455-.207.46-.457m2.152-2.213a.453.453 0 1 0-.908.013.46.46 0 0 0 .46.454c.239.004.446-.213.448-.467m.051-1.694a.48.48 0 0 0-.462-.48.46.46 0 0 0-.448.463c.007.254.232.479.477.473.226-.005.436-.226.434-.457M2.056 14.16a.44.44 0 0 0-.45-.455.454.454 0 0 0-.454.456c0 .255.207.466.448.46a.476.476 0 0 0 .456-.46m1.761 2.669a.457.457 0 0 0 .444-.438c.005-.243-.23-.48-.468-.475a.443.443 0 0 0-.434.444.446.446 0 0 0 .458.47M.442 12.277c0-.262-.175-.446-.425-.447a.487.487 0 0 0-.479.468.47.47 0 0 0 .464.452c.242-.004.441-.219.44-.473m1.968 5.769c-.002-.276-.17-.449-.438-.45-.267-.002-.46.184-.453.439.006.252.21.469.444.473.238.004.447-.213.446-.462m.383-2.506c0-.26-.176-.44-.43-.442a.453.453 0 0 0-.448.461c.002.242.2.455.427.46.263.005.451-.195.451-.478M.442 23.83a.44.44 0 0 0-.424-.454c-.248-.002-.47.206-.47.443s.21.452.458.462c.217.009.431-.213.436-.451m3.33-10.123a.445.445 0 0 0-.421.458c.006.251.205.456.433.448a.45.45 0 0 0 .436-.45.443.443 0 0 0-.448-.456M2.749 23.778a.446.446 0 0 0-.422-.453c-.236-.007-.45.212-.45.459a.464.464 0 0 0 .441.442c.229.001.428-.206.43-.448m3.245-3.281c.004-.273-.16-.45-.414-.449a.446.446 0 0 0-.45.432c-.004.234.193.426.445.436.244.009.415-.163.42-.42M.435 10.345a.423.423 0 0 0-.426-.447c-.258-.001-.429.157-.437.405-.008.252.176.462.41.469.24.007.45-.19.453-.427m4.714 13.387a.427.427 0 0 0 .41-.418c.002-.246-.191-.459-.422-.463a.453.453 0 0 0-.449.435c0 .253.203.448.46.445m-2.437-11.4a.427.427 0 0 0-.434-.414.425.425 0 0 0-.43.44c.01.248.2.433.445.433.227.001.424-.214.42-.459m3.126 5.27c-.258-.003-.442.162-.443.399 0 .266.188.463.444.462a.41.41 0 0 0 .415-.43c-.003-.25-.175-.428-.416-.431m-.721-5.196c-.251.001-.421.167-.425.416-.004.232.212.452.438.445a.44.44 0 0 0 .415-.441.426.426 0 0 0-.428-.42m.828 3.218c-.001-.245-.178-.428-.412-.428a.437.437 0 0 0-.427.423c-.002.258.174.443.423.446.252.004.418-.173.416-.441m.511-3.745c.234-.001.433-.187.437-.408.004-.226-.193-.438-.412-.441a.45.45 0 0 0-.44.463c.006.234.172.388.415.386M.012 25.38c-.25-.004-.432.168-.43.406.003.23.218.46.429.46.2 0 .421-.229.425-.44.004-.216-.201-.422-.424-.425M.035 8.755c.247-.002.406-.173.4-.432-.005-.233-.18-.394-.42-.387a.403.403 0 0 0-.392.422c.002.236.17.398.412.397m8.111 9.255c-.003-.243-.169-.414-.398-.409a.43.43 0 0 0-.414.409c-.002.25.164.41.422.41.238-.001.392-.163.39-.41m-1.707 6.227a.41.41 0 0 0-.399.392.4.4 0 0 0 .392.42.425.425 0 0 0 .417-.401.427.427 0 0 0-.41-.41M.053 6.78c.204-.002.38-.19.382-.41.003-.21-.207-.41-.42-.402-.2.009-.395.218-.388.414a.42.42 0 0 0 .426.399M.002 27.364a.4.4 0 0 0-.378.41c.006.203.199.398.397.4.21.003.42-.208.413-.412s-.225-.403-.432-.398M.03 4.028a.395.395 0 0 0-.403.41c.004.188.195.366.399.37.196.003.401-.197.404-.394.004-.211-.177-.384-.4-.386M8.184 25.96a.397.397 0 0 0-.795.023.41.41 0 0 0 .4.37c.232-.002.4-.168.395-.392M.388 29.702a.393.393 0 0 0-.397-.39.37.37 0 0 0-.37.386c.002.227.173.403.388.398.183-.004.378-.207.379-.394M.015 2.02c-.221.001-.36.15-.362.383 0 .205.197.39.406.383a.406.406 0 0 0 .374-.393c-.002-.2-.199-.376-.418-.374M.404.377A.4.4 0 0 0 .018 0c-.22 0-.385.158-.386.37 0 .224.176.403.39.396C.207.76.407.556.404.376m7.439 9.332c-.239.001-.376.146-.375.396a.36.36 0 0 0 .375.377.373.373 0 0 0 .367-.387c-.004-.223-.16-.387-.367-.386M3.014 25.871c.212 0 .379-.16.384-.367.005-.19-.185-.38-.382-.383a.37.37 0 0 0-.374.378.36.36 0 0 0 .372.372m-.082-15.677a.38.38 0 0 0-.378.382.41.41 0 0 0 .392.38c.185-.003.354-.18.362-.378a.377.377 0 0 0-.376-.384m4.278 4.378a.37.37 0 0 0-.362.366c.001.231.166.402.382.396a.37.37 0 0 0 .35-.377.38.38 0 0 0-.37-.385m2.518 3.103c-.201.005-.384.187-.383.382.001.202.175.364.39.362.205-.003.371-.166.366-.359-.007-.217-.174-.39-.373-.385M.38 31.724c.002-.196-.184-.378-.385-.378a.377.377 0 0 0-.362.371.36.36 0 0 0 .37.356c.208 0 .374-.154.377-.349m7.195-10.579a.36.36 0 0 0-.35-.37c-.186-.002-.361.159-.367.337a.36.36 0 0 0 .366.385c.222.006.35-.12.351-.352M9.57 8.75c0-.196-.173-.372-.36-.367a.344.344 0 0 0-.345.349c-.003.222.131.36.35.357a.35.35 0 0 0 .355-.34m2.49 9.325c.003-.206-.135-.369-.32-.377a.374.374 0 0 0-.38.35.37.37 0 0 0 .337.366.356.356 0 0 0 .362-.339M-.004 35.295c-.206-.002-.345.133-.345.335 0 .187.159.363.335.37a.35.35 0 0 0 .355-.364.335.335 0 0 0-.345-.34m9.511-8.023a.356.356 0 0 0-.335-.342c-.182-.004-.348.154-.343.327.007.215.14.35.343.347a.33.33 0 0 0 .335-.332M18 18.04a.34.34 0 0 0-.313-.326c-.203-.006-.351.136-.349.333.002.192.142.343.32.345A.35.35 0 0 0 18 18.04M.337 33.645c0-.188-.145-.324-.342-.32-.2.004-.331.136-.328.33.003.181.163.34.336.332a.36.36 0 0 0 .334-.342m13.698-15.611a.35.35 0 0 0-.34-.33.354.354 0 0 0-.326.323.35.35 0 0 0 .35.347c.19 0 .317-.136.316-.34m1.966.015c.002-.193-.133-.327-.328-.325-.183.001-.307.132-.306.323 0 .196.133.326.33.326.18 0 .302-.13.304-.324M10.922 7.361c-.002-.187-.128-.306-.317-.301-.188.005-.317.132-.306.313.01.19.099.316.306.318.198.003.32-.124.317-.33M4.018 27.28c0-.185-.128-.31-.319-.302-.184.007-.294.101-.298.293-.004.208.118.332.316.332.179 0 .3-.13.3-.323M3.678 8.438a.32.32 0 0 0-.31.307c-.002.182.158.352.332.338.19-.015.282-.128.283-.318.001-.188-.132-.33-.305-.327m8.345-2.187c.186-.003.304-.132.297-.324a.3.3 0 0 0-.329-.299c-.192.016-.276.146-.291.32-.016.174.136.307.323.303m.239 23.9c.005-.159-.155-.33-.307-.331a.32.32 0 0 0-.315.32c-.004.196.112.286.292.301a.293.293 0 0 0 .33-.29M8.988 14.576c.17-.006.3-.136.302-.303.002-.17-.146-.326-.309-.327-.185-.001-.308.125-.306.317.001.187.133.319.313.313m1.587 13.844c-.172.004-.323.16-.312.324a.334.334 0 0 0 .34.3c.2-.007.278-.135.287-.312.01-.184-.133-.317-.315-.313M9.02 22.168c.127-.014.228-.109.23-.3.002-.203-.11-.33-.293-.325-.195.005-.283.122-.29.306-.008.203.103.32.352.32" fill="currentColor"/></svg>