<svg width="20" height="20" viewBox="0 0 20 20" fill="none" xmlns="http://www.w3.org/2000/svg"><path d="M15.333 3.917c1.15 0 2.083.933 2.083 2.083v8c0 1.15-.933 2.084-2.083 2.084H4.666A2.085 2.085 0 0 1 2.583 14V6c0-1.15.933-2.083 2.083-2.083zM4.083 14c0 .322.261.584.583.584h10.667a.584.584 0 0 0 .583-.584V8.034l-4.84 3.083-.027.017a2.08 2.08 0 0 1-2.118-.016L4.083 8.032zm.583-8.583A.584.584 0 0 0 4.083 6v.255l5.63 3.583a.59.59 0 0 0 .575.002l5.628-3.585V6a.583.583 0 0 0-.583-.583zM2.01 2.01H2V2h.01z" fill="currentColor"/></svg>