<svg width="30" height="30" viewBox="0 0 30 30" fill="none" xmlns="http://www.w3.org/2000/svg"><svg xmlns="http://www.w3.org/2000/svg" width="23" height="23" x="3.5" y="3.5" viewBox="0 0 141.51 136.42"><path fill="#FF5C16" d="m132.24 131.75-30.48-9.07-22.99 13.74-16.03-.01-23-13.74-30.47 9.08L0 100.47l9.27-34.73L0 36.4 9.27 0l47.6 28.44h27.76L132.24 0l9.27 36.38-9.27 29.36 9.27 34.72-9.27 31.3Z"/><path fill="#FF5C16" d="m9.27 0 47.61 28.46L54.98 48 9.29 0Zm30.47 100.48 20.95 15.95-20.95 6.24v-22.2ZM59.01 74.1 55 48 29.22 65.75h-.02l.08 18.27 10.45-9.92h19.29ZM132.25 0l-47.6 28.46L86.51 48l45.72-48Zm-30.47 100.48-20.94 15.95 20.94 6.24v-22.2Zm10.53-34.73L86.53 48 82.5 74.1h19.27l10.46 9.9.07-18.26Z"/><path fill="#E34807" d="m39.73 122.67-30.46 9.08L0 100.48h39.73v22.2ZM59.02 74.1l5.82 37.71-8.07-20.97-27.49-6.82 10.46-9.92H59Zm42.76 48.59 30.47 9.07 9.27-31.27h-39.74zM82.5 74.09l-5.82 37.71 8.06-20.97 27.5-6.82-10.47-9.92z"/><path fill="#FF8D5D" d="m0 100.47 9.27-34.73H29.2l.07 18.27 27.5 6.82 8.06 20.97-4.15 4.62-20.94-15.96H0Zm141.5 0-9.26-34.73h-19.93l-.07 18.27-27.5 6.82-8.06 20.97 4.15 4.62 20.94-15.96h39.74ZM84.64 28.44H56.88l-1.89 19.54 9.84 63.8h11.85l9.85-63.8-1.9-19.54Z"/><path fill="#661800" d="M9.27 0 0 36.38l9.27 29.36H29.2L54.98 48zm43.98 81.67h-9.03l-4.92 4.81 17.47 4.33-3.52-9.15ZM132.24 0l9.27 36.38-9.27 29.36h-19.93L86.53 48zM88.27 81.67h9.04l4.92 4.82-17.49 4.34 3.53-9.17Zm-9.5 42.3 2.06-7.54-4.15-4.62H64.82l-4.14 4.62 2.05 7.54"/><path fill="#C0C4CD" d="M78.77 123.97v12.45H62.74v-12.45h16.02Z"/><path fill="#E7EBF6" d="m39.74 122.66 23 13.76v-12.46l-2.05-7.54zm62.03 0-23 13.76v-12.46l2.06-7.54z"/></svg></svg>