<svg viewBox="0 0 14 15" fill="none" xmlns="http://www.w3.org/2000/svg"><path d="M6.083 0c.329 0 .645.115.897.321l.105.094.094.104c.206.252.32.57.321.898v1.255a.75.75 0 0 1 .667.745v.585a5.417 5.417 0 0 1 3.747 9.245q-.045.044-.092.087h.928a.75.75 0 0 1 0 1.5h-12a.75.75 0 0 1 0-1.5h7.314l.02-.001a3.917 3.917 0 0 0 2.77-6.686 3.92 3.92 0 0 0-2.687-1.145v.582a2.084 2.084 0 0 1-1.67 2.041.75.75 0 0 1-.414 1.375H4.75a.75.75 0 0 1-.415-1.375 2.08 2.08 0 0 1-1.668-2.041V3.417a.75.75 0 0 1 .666-.745V1.417A1.42 1.42 0 0 1 4.75 0zm2 10.667a.75.75 0 0 1 0 1.5H2.75a.75.75 0 0 1 0-1.5zM4.167 6.084a.583.583 0 0 0 .583.583h1.334a.584.584 0 0 0 .583-.583V4.167h-2.5zm.666-3.417H6V1.5H4.833z" fill="currentColor"/></svg>