<svg viewBox="0 0 16 16" fill="none" xmlns="http://www.w3.org/2000/svg">
<path d="M10.6672 3.31641C12.1089 3.31669 13.2805 4.45455 13.343 5.88086C13.3648 5.88079 13.3866 5.87927 13.4084 5.87988C13.9609 5.8955 14.4848 6.1297 14.8645 6.53125C15.2442 6.93308 15.4495 7.46981 15.4338 8.02246C15.4182 8.57361 15.1833 9.09516 14.7834 9.47461L14.7844 9.47559L11.7239 12.4023C11.0983 13.0905 10.2329 13.4169 9.33325 13.417H6.66626C6.42624 13.4171 6.35121 13.4929 6.33325 13.5166C6.30207 13.5581 6.26588 13.5966 6.22681 13.6309L5.76294 14.0361L5.86353 14.1367C6.15631 14.4296 6.15638 14.9044 5.86353 15.1973C5.57065 15.4899 5.09581 15.49 4.80298 15.1973L0.802979 11.1973C0.510157 10.9044 0.510301 10.4296 0.802979 10.1367C1.09587 9.84383 1.57063 9.84383 1.86353 10.1367L2.00903 10.2822L5.18091 7.22461C5.56381 6.75926 6.13092 6.58301 6.66724 6.58301H8.04907C8.00743 6.39525 7.98366 6.2003 7.98364 6C7.98378 4.51816 9.18536 3.31641 10.6672 3.31641ZM13.3665 7.37891C13.2116 7.37464 13.0611 7.43267 12.9485 7.53906L12.9436 7.54297L12.5735 7.88574C12.5432 7.91639 12.5105 7.94447 12.4788 7.97363L10.1428 10.1436C10.1206 10.1642 10.0965 10.1818 10.0725 10.1992C9.68918 10.5509 9.18958 10.7499 8.66724 10.75H7.33325C6.9193 10.7498 6.58343 10.414 6.58325 10C6.58343 9.58604 6.9193 9.25018 7.33325 9.25H8.66724C8.82167 9.24986 8.97009 9.18827 9.07935 9.0791C9.18857 8.96973 9.25024 8.8206 9.25024 8.66602C9.25007 8.51154 9.18859 8.36315 9.07935 8.25391C8.97008 8.14467 8.82172 8.08315 8.66724 8.08301H6.66724C6.42718 8.08301 6.35135 8.15876 6.33325 8.18262C6.30936 8.21447 6.28279 8.24479 6.25415 8.27246L3.06958 11.3428L4.69946 12.9727L5.1936 12.541C5.57615 12.0882 6.13648 11.9171 6.66626 11.917H9.33325C9.881 11.9169 10.3301 11.7213 10.635 11.373L10.6809 11.3252L13.7483 8.3916L13.7512 8.38867C13.8638 8.28232 13.9293 8.13522 13.9338 7.98047C13.9382 7.82548 13.8812 7.67421 13.7747 7.56152C13.6683 7.44908 13.5212 7.38337 13.3665 7.37891ZM10.6672 4.81641C10.0138 4.81641 9.48378 5.34658 9.48364 6C9.48378 6.65342 10.0138 7.18262 10.6672 7.18262C10.9478 7.18249 11.2048 7.08412 11.4075 6.9209L11.5247 6.81152C11.7251 6.59967 11.8498 6.31483 11.8499 6C11.8497 5.34676 11.3204 4.8167 10.6672 4.81641ZM4.00024 0.583008C5.51882 0.583126 6.75007 1.81445 6.75024 3.33301C6.75024 4.85172 5.51893 6.08289 4.00024 6.08301C2.48146 6.08301 1.25024 4.85179 1.25024 3.33301C1.25042 1.81437 2.48157 0.583008 4.00024 0.583008ZM4.00024 2.08301C3.31 2.08301 2.75042 2.6428 2.75024 3.33301C2.75024 4.02336 3.30989 4.58301 4.00024 4.58301C4.6905 4.58289 5.25024 4.02329 5.25024 3.33301C5.25007 2.64287 4.69039 2.08313 4.00024 2.08301Z" fill="#D4D4D4"/>
</svg>
