<svg viewBox="0 0 15 15" fill="none" xmlns="http://www.w3.org/2000/svg"><path d="M3.088 9.326c.475.015.93.183 1.3.476l.153.133.01.008-.001.001c.825.816.813 2.12.106 2.957h-.001c-.306.363-.723.627-1.118.82-.405.198-.84.347-1.23.459a12 12 0 0 1-1.422.308l-.025.004-.007.001-.003.001a.75.75 0 0 1-.843-.843v-.011l.004-.026a7 7 0 0 1 .07-.406c.05-.263.127-.624.24-1.016.11-.389.26-.825.458-1.23.193-.395.458-.813.821-1.12a2.2 2.2 0 0 1 1.488-.516M13.755 0a.75.75 0 0 1 .746.75c0 1.881-.529 5.155-3.895 7.645.054.233.116.53.158.855.05.382.077.824.037 1.26-.04.43-.152.91-.426 1.323l-.001.001c-.469.7-1.346 1.1-1.944 1.317a8.5 8.5 0 0 1-1.18.331l-.022.004-.007.002h-.003a.75.75 0 0 1-.884-.737V9.728l-1.56-1.561H1.75a.75.75 0 0 1-.739-.884h.001v-.004l.001-.007.005-.021a6 6 0 0 1 .076-.34 9 9 0 0 1 .254-.84c.217-.598.617-1.475 1.318-1.944.413-.275.894-.387 1.324-.427a5.8 5.8 0 0 1 1.26.036c.328.042.625.104.86.159A9.34 9.34 0 0 1 13.754 0M3.042 10.825a.7.7 0 0 0-.476.165v.001c-.137.114-.29.324-.44.631a6 6 0 0 0-.364.983l-.046.178q.088-.02.18-.046c.338-.097.684-.218.983-.364.307-.15.515-.303.63-.438l.002-.002c.238-.283.212-.694-.013-.92a.7.7 0 0 0-.456-.188m6.202-1.578q-.689.374-1.41.677v1.845l.085-.028c.574-.208 1.03-.475 1.208-.741.084-.128.153-.334.18-.629.027-.29.01-.613-.03-.93zm3.719-7.713a7.84 7.84 0 0 0-5.91 3.648l-.004.005c-.418.653-.78 1.34-1.083 2.051l1.297 1.298A14 14 0 0 0 9.35 7.45c2.728-1.837 3.46-4.223 3.614-5.915M4.13 5.195c-.296.027-.503.096-.63.181-.266.179-.533.634-.74 1.207l-.029.085H4.58q.307-.721.685-1.41-.1-.017-.205-.032a4.3 4.3 0 0 0-.93-.032" fill="currentColor"/></svg>