<svg viewBox="0 0 15 14" fill="none" xmlns="http://www.w3.org/2000/svg"><path d="M10.75 0a2.084 2.084 0 0 1 2.083 2.083v7.25h.584a1.42 1.42 0 0 1 1.416 1.417v.667A2.084 2.084 0 0 1 12.75 13.5h-8a2.083 2.083 0 0 1-2.083-2.083V4.833h-1.25a1.417 1.417 0 0 1-1.41-1.276L0 3.417V2.083A2.084 2.084 0 0 1 2.083 0zM4.082 1.5q.084.283.085.583v9.334a.583.583 0 0 0 1.166 0v-.667A1.42 1.42 0 0 1 6.75 9.333h4.583v-7.25a.584.584 0 0 0-.583-.583zm2.751 9.917q-.002.3-.084.583h6.001a.584.584 0 0 0 .583-.583v-.584h-6.5zM9.416 6a.75.75 0 0 1 0 1.5H6.083a.75.75 0 1 1 0-1.5zm0-2.666a.75.75 0 0 1 0 1.5H6.083a.75.75 0 0 1 0-1.5zM2.083 1.5a.584.584 0 0 0-.583.583v1.25h1.167v-1.25a.585.585 0 0 0-.584-.583" fill="currentColor"/></svg>