<svg viewBox="0 0 14 14" fill="none" xmlns="http://www.w3.org/2000/svg"><path d="M6.083 0a6.084 6.084 0 0 1 6.084 6.083 6.05 6.05 0 0 1-1.286 3.737l2.4 2.4a.752.752 0 0 1-1.061 1.061l-2.4-2.4a6.06 6.06 0 0 1-3.737 1.286A6.084 6.084 0 0 1 6.083 0m0 1.5a4.583 4.583 0 1 0 0 9.167 4.583 4.583 0 0 0 0-9.167M7.22 3.887a.75.75 0 0 1 1.06 1.06L7.144 6.083 8.28 7.22a.75.75 0 0 1-1.06 1.06L6.083 7.144 4.947 8.28a.75.75 0 0 1-1.06-1.06l1.135-1.137-1.135-1.136a.75.75 0 1 1 1.06-1.06l1.136 1.135z" fill="currentColor"/></svg>