<svg viewBox="0 0 15 15" fill="none" xmlns="http://www.w3.org/2000/svg"><path d="M13.4.06a1.08 1.08 0 0 1 1.003.155l.116.1.1.117q.092.122.146.265l.044.148.023.151c.012.148-.01.297-.058.438l-4.332 12.668a1.09 1.09 0 0 1-.997.732 1.085 1.085 0 0 1-1.034-.68l-2.12-5.287-.054-.104a.6.6 0 0 0-.165-.165l-.105-.055L.68 6.423A1.08 1.08 0 0 1 0 5.39l.018-.164a1.09 1.09 0 0 1 .714-.833zM7.653 8.243q.016.032.03.065l1.703 4.246 3.142-9.186zM2.28 5.447l4.246 1.704h-.001q.034.014.067.03l4.879-4.878z" fill="currentColor"/></svg>