<svg viewBox="0 0 14 15" fill="none" xmlns="http://www.w3.org/2000/svg"><path d="M6.783 0a1.96 1.96 0 0 1 1.96 1.958v.12l.005.092a.7.7 0 0 0 .27.469l.078.051.002.001.284.166a.71.71 0 0 0 .709 0l.018-.01.1-.053a1.96 1.96 0 0 1 2.655.725l.147.252v.001a1.96 1.96 0 0 1-.707 2.668v.001l-.099.06-.009.005a.71.71 0 0 0-.354.616v.339a.71.71 0 0 0 .348.611l.087.048.02.01a1.96 1.96 0 0 1 .717 2.668l-.146.26-.004.007a1.96 1.96 0 0 1-2.654.724v.001l-.1-.054-.02-.01a.71.71 0 0 0-.707 0h-.001l-.284.166h-.002a.71.71 0 0 0-.354.614v.119a1.96 1.96 0 0 1-1.959 1.958H6.49a1.96 1.96 0 0 1-1.959-1.958v-.12l-.006-.092a.71.71 0 0 0-.347-.52l-.002-.001-.285-.166a.71.71 0 0 0-.708 0l-.019.01-.1.054v-.002a1.96 1.96 0 0 1-2.55-.56l-.105-.163-.146-.253-.001-.002a1.96 1.96 0 0 1 .715-2.672l.091-.056.01-.005a.71.71 0 0 0 .354-.616v-.339a.71.71 0 0 0-.389-.63l-.1-.067v-.001a1.957 1.957 0 0 1-.681-2.652l.147-.253.106-.164a1.96 1.96 0 0 1 2.548-.561h.001l.1.053.019.01a.71.71 0 0 0 .625.041l.083-.04.285-.167h.002a.71.71 0 0 0 .347-.521l.006-.092v-.12A1.96 1.96 0 0 1 6.491 0zM6.49 1.25a.71.71 0 0 0-.709.708v.121a1.96 1.96 0 0 1-.978 1.692v.001l-.285.166-.002.001a1.96 1.96 0 0 1-1.94.01v.001l-.1-.054-.018-.01a.71.71 0 0 0-.967.259l-.146.253a.71.71 0 0 0 .145.885l.114.081.033.02.1.067h-.002a1.96 1.96 0 0 1 .947 1.663v.342l-.004.129a1.96 1.96 0 0 1-.967 1.568l-.1.06-.007.006a.71.71 0 0 0-.26.966l.147.253.081.114a.71.71 0 0 0 .886.145l.018-.01.1-.053a1.96 1.96 0 0 1 1.94.01h.002l.284.166a1.96 1.96 0 0 1 .98 1.694v.121a.71.71 0 0 0 .708.708h.293a.71.71 0 0 0 .71-.708v-.121a1.96 1.96 0 0 1 .868-1.626l.11-.068.285-.165.002-.001a1.96 1.96 0 0 1 1.94-.01l.1.053.017.01a.71.71 0 0 0 .967-.258l.144-.254.003-.005a.71.71 0 0 0-.26-.967v-.001l-.08-.042-.018-.01a1.96 1.96 0 0 1-.98-1.704v-.331a1.96 1.96 0 0 1 .97-1.696l.101-.06.008-.005a.71.71 0 0 0 .259-.966l-.147-.253a.71.71 0 0 0-.984-.249l-.1.054h-.002a1.96 1.96 0 0 1-1.938-.01l-.002-.002-.286-.166a1.96 1.96 0 0 1-.978-1.693v-.121a.71.71 0 0 0-.709-.708zm.147 3.417a2.625 2.625 0 1 1 0 5.25 2.625 2.625 0 0 1 0-5.25m0 1.25a1.375 1.375 0 1 0 0 2.75 1.375 1.375 0 0 0 0-2.75" fill="currentColor"/></svg>