<svg viewBox="0 0 16 16" fill="none" xmlns="http://www.w3.org/2000/svg">
<path d="M13.3334 8.66688C13.3334 12.0002 11 13.6669 8.22669 14.6336C8.08146 14.6828 7.92371 14.6804 7.78002 14.6269C5.00002 13.6669 2.66669 12.0002 2.66669 8.66688V4.00022C2.66669 3.82341 2.73693 3.65384 2.86195 3.52881C2.98697 3.40379 3.15654 3.33355 3.33335 3.33355C4.66669 3.33355 6.33335 2.53355 7.49335 1.52022C7.63459 1.39955 7.81426 1.33325 8.00002 1.33325C8.18578 1.33325 8.36545 1.39955 8.50669 1.52022C9.67335 2.54022 11.3334 3.33355 12.6667 3.33355C12.8435 3.33355 13.0131 3.40379 13.1381 3.52881C13.2631 3.65384 13.3334 3.82341 13.3334 4.00022V8.66688Z" fill="#D4D4D4"/>
<path d="M8 5.33325V7.99992" stroke="white" stroke-width="1.25" stroke-linecap="round" stroke-linejoin="round"/>
<path d="M8 10.6667H8.00667" stroke="white" stroke-width="1.25" stroke-linecap="round" stroke-linejoin="round"/>
</svg>
