<svg viewBox="0 0 34 42" fill="none" xmlns="http://www.w3.org/2000/svg"><path d="m11 19.864 4 4 9-9m9 6c0 9.817-10.708 16.957-14.604 19.23-.443.258-.664.387-.977.454a2.3 2.3 0 0 1-.838 0c-.313-.067-.534-.196-.977-.454C11.708 37.82 1 30.68 1 20.864v-9.565c0-1.599 0-2.398.262-3.086a4 4 0 0 1 1.093-1.578c.552-.486 1.3-.767 2.798-1.328l10.724-4.022c.415-.156.623-.234.837-.264a2 2 0 0 1 .572 0c.214.03.422.108.838.264l10.723 4.022c1.497.561 2.246.842 2.798 1.328a4 4 0 0 1 1.094 1.578C33 8.901 33 9.7 33 11.3z" stroke="currentColor" stroke-width="2" stroke-linecap="round" stroke-linejoin="round"/></svg>