<svg width="14" height="14" viewBox="0 0 14 14" fill="none" xmlns="http://www.w3.org/2000/svg"><path d="M11.156 4.344a.4.4 0 0 1-.266.105H1.542c-.331 0-.499-.379-.27-.601l1.536-1.48a.4.4 0 0 1 .266-.11h9.384c.335 0 .5.383.266.606z" fill="url(#a)"/><path d="M11.156 11.64a.4.4 0 0 1-.266.102H1.542c-.331 0-.499-.376-.27-.598l1.536-1.485a.38.38 0 0 1 .266-.105h9.384c.335 0 .5.38.266.601z" fill="url(#b)"/><path d="M11.156 6.01a.4.4 0 0 0-.266-.102H1.542c-.331 0-.499.376-.27.598L2.809 7.99a.4.4 0 0 0 .266.106h9.384c.335 0 .5-.38.266-.602z" fill="url(#c)"/><defs><linearGradient id="a" x1="1.167" y1="34.897" x2="13.131" y2="34.787" gradientUnits="userSpaceOnUse"><stop stop-color="#599db0"/><stop offset="1" stop-color="#47f8c3"/></linearGradient><linearGradient id="b" x1="1.167" y1="5.164" x2="13.055" y2="5.073" gradientUnits="userSpaceOnUse"><stop stop-color="#c44fe2"/><stop offset="1" stop-color="#73b0d0"/></linearGradient><linearGradient id="c" x1="1.838" y1="7.002" x2="12.381" y2="7.002" gradientUnits="userSpaceOnUse"><stop stop-color="#778cbf"/><stop offset="1" stop-color="#5dcdc9"/></linearGradient></defs></svg>