<svg viewBox="0 0 12 12" fill="none" xmlns="http://www.w3.org/2000/svg"><g clip-path="url(#a)" stroke="currentColor" stroke-linecap="round" stroke-linejoin="round"><path d="M4.968 7.75a1 1 0 0 0-.719-.718L1.182 6.24a.25.25 0 0 1 0-.481l3.067-.792a1 1 0 0 0 .719-.718l.79-3.067a.25.25 0 0 1 .482 0l.79 3.067a1 1 0 0 0 .72.719l3.067.79a.25.25 0 0 1 0 .482l-3.068.79a1 1 0 0 0-.718.72l-.791 3.067a.25.25 0 0 1-.482 0zM10 1.5v2m1-1H9m-7 6v1m.5-.5h-1"/></g><defs><clipPath id="a"><path fill="#fff" d="M0 0h12v12H0z"/></clipPath></defs></svg>