<svg viewBox="0 0 15 15" fill="none" xmlns="http://www.w3.org/2000/svg"><path d="M6.75.664a.75.75 0 0 1 0 1.5H2.083a.583.583 0 0 0-.583.583v9.334a.584.584 0 0 0 .583.583h9.334a.583.583 0 0 0 .583-.583V7.414a.75.75 0 0 1 1.5 0v4.667a2.083 2.083 0 0 1-2.083 2.083H2.083A2.083 2.083 0 0 1 0 12.081V2.747A2.083 2.083 0 0 1 2.083.664zM12 0a2.166 2.166 0 0 1 2.165 2.164c0 .574-.229 1.125-.635 1.53l-6.008 6.01a2.1 2.1 0 0 1-.89.525l.002.002-1.916.559a1.084 1.084 0 0 1-1.343-1.344l.56-1.915a2.1 2.1 0 0 1 .527-.888L10.47.633A2.17 2.17 0 0 1 12 0m0 1.5a.67.67 0 0 0-.47.194l-6.008 6.01a.6.6 0 0 0-.148.25l-.347 1.183 1.186-.347.068-.024a.6.6 0 0 0 .18-.123l6.009-6.01a.665.665 0 0 0 0-.939A.67.67 0 0 0 12 1.5" fill="currentColor"/></svg>