<svg viewBox="0 0 15 15" fill="none" xmlns="http://www.w3.org/2000/svg"><path d="M7.02 6.001c.154-.009.31.016.455.073l6 2.333h.002c.156.061.297.158.409.281l.102.133.08.147a1.082 1.082 0 0 1-.663 1.482v.001l-2.257.7-.697 2.253v.001a1.084 1.084 0 0 1-2.044.072v-.001l-2.334-6 .001-.001a1.1 1.1 0 0 1-.053-.612l.043-.152a1.08 1.08 0 0 1 .8-.69zM.75 10.667a.75.75 0 0 1 .75.75.584.584 0 0 0 .583.583.75.75 0 0 1 0 1.5A2.083 2.083 0 0 1 0 11.417a.75.75 0 0 1 .75-.75M6.083 12a.75.75 0 0 1 0 1.5H4.75a.75.75 0 0 1 0-1.5zm3.288-.182.358-1.153.061-.161q.107-.237.291-.422l.129-.114a1.4 1.4 0 0 1 .454-.238l1.155-.358-4.005-1.558zM.75 7.333a.75.75 0 0 1 .75.75v.667a.75.75 0 0 1-1.5 0v-.667a.75.75 0 0 1 .75-.75M12.75 4a.75.75 0 0 1 .75.75v1.333a.75.75 0 0 1-1.5 0V4.75a.75.75 0 0 1 .75-.75m-12 0a.75.75 0 0 1 .75.75v.667a.75.75 0 0 1-1.5 0V4.75A.75.75 0 0 1 .75 4m1.333-4a.75.75 0 0 1 0 1.5.583.583 0 0 0-.583.583.75.75 0 0 1-1.5 0A2.083 2.083 0 0 1 2.083 0m9.334 0A2.084 2.084 0 0 1 13.5 2.083a.75.75 0 0 1-1.5 0 .584.584 0 0 0-.583-.583.75.75 0 0 1 0-1.5m-6 0a.75.75 0 0 1 0 1.5H4.75a.75.75 0 0 1 0-1.5zM8.75 0a.75.75 0 0 1 0 1.5h-.667a.75.75 0 0 1 0-1.5z" fill="currentColor"/></svg>