<svg viewBox="0 0 16 16" fill="none" xmlns="http://www.w3.org/2000/svg">
<path d="M5.00769 2.61646C5.37899 2.43285 5.82897 2.585 6.01257 2.9563C6.19581 3.32747 6.04378 3.77664 5.67273 3.96021C4.77135 4.40603 4.01657 5.10197 3.4989 5.96411C2.98132 6.82637 2.72151 7.82021 2.75183 8.82544C2.7823 9.83041 3.10131 10.8057 3.6698 11.635C4.23855 12.4645 5.03405 13.1135 5.96082 13.5042C6.88756 13.8948 7.90743 14.0111 8.89832 13.8391C9.8891 13.667 10.8099 13.2135 11.5507 12.5334C12.2913 11.8533 12.8212 10.9746 13.077 10.0022C13.3328 9.02949 13.3044 8.00283 12.994 7.04614C12.8664 6.65238 13.0819 6.22983 13.4755 6.10181C13.8694 5.97399 14.2929 6.18935 14.4208 6.58325C14.8198 7.81323 14.857 9.13248 14.5282 10.3831C14.1993 11.6336 13.5178 12.7643 12.5653 13.6389C11.6129 14.5133 10.429 15.0964 9.15515 15.3176C7.88112 15.5388 6.56938 15.3892 5.37781 14.887C4.18627 14.3846 3.16373 13.5501 2.4325 12.4836C1.70135 11.4172 1.29189 10.1628 1.25281 8.87036C1.21382 7.578 1.54739 6.3012 2.21277 5.19263C2.8783 4.08412 3.84878 3.18971 5.00769 2.61646ZM4.73523 6.21411C4.9841 5.88331 5.45498 5.81601 5.78601 6.0647C6.11669 6.31345 6.18274 6.78349 5.93445 7.1145C5.67571 7.45891 5.50715 7.86317 5.44421 8.28931C5.38139 8.71559 5.42672 9.15137 5.57507 9.55591C5.72355 9.96057 5.97107 10.3221 6.2948 10.6067C6.61848 10.8912 7.00836 11.0904 7.42859 11.1858C7.84876 11.2811 8.28637 11.2695 8.70105 11.1526C9.11573 11.0356 9.49509 10.8167 9.80359 10.5159C10.112 10.215 10.3403 9.84149 10.4677 9.42993C10.5949 9.01827 10.6178 8.58093 10.5331 8.15845C10.4518 7.75241 10.7149 7.35707 11.121 7.27563C11.5268 7.19451 11.9223 7.4577 12.0038 7.86353C12.1377 8.53137 12.1025 9.22256 11.9012 9.87329C11.6999 10.524 11.3381 11.1145 10.8505 11.5901C10.3628 12.0655 9.76374 12.412 9.10828 12.5969C8.4527 12.7817 7.76081 12.7994 7.09656 12.6487C6.43237 12.4979 5.81616 12.1832 5.30457 11.7336C4.79286 11.2838 4.40156 10.7121 4.16687 10.0725C3.93238 9.43315 3.86159 8.74528 3.96082 8.07153C4.06018 7.39776 4.32621 6.75867 4.73523 6.21411ZM7.60535 0.695557C7.82629 0.559004 8.10246 0.546388 8.33484 0.662354L13.6688 3.32935C13.9227 3.45643 14.0829 3.71628 14.0829 4.00024C14.0828 4.2842 13.9228 4.54415 13.6688 4.67114L8.74988 7.12915V8.66626C8.74988 9.08047 8.41409 9.41626 7.99988 9.41626C7.58573 9.41619 7.24988 9.08043 7.24988 8.66626V1.33325C7.2499 1.07349 7.38447 0.832242 7.60535 0.695557ZM8.74988 5.45239L11.6561 3.99927L8.74988 2.54614V5.45239ZM2.00964 2.01001H1.99988V2.00024H2.00964V2.01001Z" fill="#D4D4D4"/>
</svg>
