<svg viewBox="0 0 28 28" fill="none" xmlns="http://www.w3.org/2000/svg"><g clip-path="url(#a)"><path d="M14 28c7.732 0 14-6.268 14-14S21.732 0 14 0 0 6.268 0 14s6.268 14 14 14" fill="#fff"/><path fill-rule="evenodd" clip-rule="evenodd" d="M28 14c0 7.732-6.268 14-14 14S0 21.732 0 14 6.268 0 14 0s14 6.268 14 14m-13.498-3.665q-2.043.851-8.165 3.517-.994.396-1.041.774c-.054.426.48.594 1.207.822l.306.097c.715.233 1.676.505 2.176.515q.68.015 1.518-.56 5.72-3.862 5.906-3.904c.087-.02.207-.044.29.028.081.073.073.211.064.248-.052.225-2.147 2.172-3.23 3.18-.338.314-.578.537-.627.588q-.167.17-.33.325c-.663.64-1.161 1.12.028 1.905.572.376 1.03.688 1.486.999.498.34.995.678 1.639 1.1q.245.162.473.327c.58.413 1.1.785 1.744.726.375-.035.761-.386.957-1.436.464-2.479 1.376-7.851 1.586-10.065a2.5 2.5 0 0 0-.023-.551.6.6 0 0 0-.2-.38c-.167-.135-.426-.164-.542-.162-.526.01-1.334.29-5.222 1.907" fill="url(#b)"/></g><defs><linearGradient id="b" x1="14" y1="0" x2="14" y2="27.792" gradientUnits="userSpaceOnUse"><stop stop-color="#2aabee"/><stop offset="1" stop-color="#229ed9"/></linearGradient><clipPath id="a"><path fill="#fff" d="M0 0h28v28H0z"/></clipPath></defs></svg>