<svg viewBox="0 0 16 16" fill="none" xmlns="http://www.w3.org/2000/svg"><g clip-path="url(#a)"><path d="M8 0a7.999 7.999 0 1 1 0 15.998A7.999 7.999 0 0 1 8 0m3.271 4.815c-.3.006-.762.166-2.985 1.09q-1.166.486-4.665 2.01-.567.226-.595.441c-.035.277.364.364.864.527.408.133.959.288 1.244.294q.39.008.867-.32 3.264-2.204 3.375-2.231c.05-.011.119-.026.165.016s.043.12.038.141c-.039.17-2.087 2.031-2.204 2.154-.45.467-.963.753-.173 1.274.684.45 1.082.737 1.785 1.2.45.294.803.643 1.268.6.214-.019.434-.22.546-.82.265-1.416.786-4.487.906-5.752a1.4 1.4 0 0 0-.012-.314.35.35 0 0 0-.114-.217.53.53 0 0 0-.31-.093" fill="currentColor"/></g><defs><clipPath id="a"><path fill="#fff" d="M0 0h16v16H0z"/></clipPath></defs></svg>