<svg viewBox="0 0 16 16" fill="none" xmlns="http://www.w3.org/2000/svg"><path d="M9.354 9.355a.75.75 0 0 1 1.061 0l2.834 2.835v-1.523a.75.75 0 0 1 1.5 0V14c0 .08-.017.157-.04.23l-.018.056q-.016.035-.035.068a.8.8 0 0 1-.127.176.8.8 0 0 1-.244.161q-.027.01-.056.018a.7.7 0 0 1-.153.037L14 14.75h-3.333a.75.75 0 0 1 0-1.5h1.522l-2.834-2.834a.75.75 0 0 1 0-1.06m4.647-8.105a.8.8 0 0 1 .286.057q.034.016.065.035a.8.8 0 0 1 .178.128.75.75 0 0 1 .217.508l.002.032v3.323a.75.75 0 0 1-1.5 0V3.812L8.53 8.53a.75.75 0 0 1-1.06 0L5.333 6.394l-3.47 3.47a.75.75 0 1 1-1.06-1.061l4-4 .056-.051a.75.75 0 0 1 1.004.05L8 6.94l4.19-4.189h-1.524a.75.75 0 0 1 0-1.5zM2.01 2.01H2V2h.01z" fill="currentColor"/></svg>