<svg viewBox="0 0 15 15" fill="none" xmlns="http://www.w3.org/2000/svg"><path fill-rule="evenodd" clip-rule="evenodd" d="M9.959 11.334c.345 0 .625.28.625.625v2a.626.626 0 0 1-1.25 0v-2c0-.345.28-.625.625-.625M2.297 6.683a.626.626 0 0 1 .884.884L2.049 8.7l-.177.201a2.713 2.713 0 0 0 .24 3.628 2.713 2.713 0 0 0 3.766 0l1.132-1.132a.625.625 0 0 1 .884.884l-1.14 1.14-.008.009v-.001a3.96 3.96 0 0 1-5.5 0h-.002a3.963 3.963 0 0 1-.096-5.597zm11.662 2.651a.625.625 0 0 1 0 1.25h-2a.625.625 0 0 1 0-1.25zM10.588.044c.962 0 1.889.351 2.61.981l.14.13.002.001a3.96 3.96 0 0 1 .18 5.502.6.6 0 0 1-.08.104l-1.148 1.14a.625.625 0 1 1-.88-.887l1.063-1.058a1 1 0 0 1 .06-.072 2.71 2.71 0 0 0-.064-3.831 2.714 2.714 0 0 0-3.766 0l-1.14 1.134a.625.625 0 0 1-.88-.886l1.146-1.14.007-.007a3.96 3.96 0 0 1 2.75-1.11M2.625 4a.625.625 0 0 1 0 1.25h-2a.625.625 0 0 1 0-1.25zm2-4c.345 0 .625.28.625.625v2a.625.625 0 1 1-1.25 0v-2C4 .28 4.28 0 4.625 0" fill="currentColor"/></svg>
