<svg width="14" height="14" viewBox="0 0 14 14" fill="none" xmlns="http://www.w3.org/2000/svg"><path fill-rule="evenodd" clip-rule="evenodd" d="M7 12.833c3.234 0 5.833-2.6 5.833-5.833S10.233 1.167 7 1.167A5.82 5.82 0 0 0 1.167 7c0 3.234 2.6 5.833 5.833 5.833m1.604-4.911c0-.85-.51-1.141-1.53-1.261-.73-.099-.876-.292-.876-.635 0-.339.244-.558.73-.558.437 0 .681.146.801.51a.185.185 0 0 0 .172.121h.386a.166.166 0 0 0 .172-.168v-.025C8.36 5.37 7.923 4.86 7.365 4.812v-.536c0-.098-.073-.171-.193-.193H6.85c-.099 0-.19.073-.215.193v.536c-.73.099-1.214.656-1.214 1.265 0 .802.485 1.116 1.505 1.24.682.12.9.266.9.656 0 .387-.342.656-.801.656-.635 0-.853-.27-.926-.634-.022-.095-.095-.146-.168-.146h-.416a.166.166 0 0 0-.167.172v.025c.094.605.485 1.02 1.287 1.141v.54c0 .098.073.164.193.19h.35c.095 0 .16-.066.186-.19v-.54c.729-.12 1.24-.609 1.24-1.265M4.545 9.738c.353.323.766.574 1.216.736.073.051.146.146.146.219v.343c0 .047 0 .072-.026.094-.022.099-.12.146-.219.099a4.375 4.375 0 0 1 0-8.338c.026-.022.073-.022.099-.022.098.022.146.095.146.193v.34c0 .123-.048.196-.146.243a3.6 3.6 0 0 0-2.162 2.162 3.62 3.62 0 0 0 .946 3.931M8.12 2.99c.022-.098.12-.146.22-.098a4.41 4.41 0 0 1 2.843 2.869 4.37 4.37 0 0 1-2.844 5.494c-.025.022-.073.022-.098.022-.099-.022-.146-.095-.146-.193v-.34c0-.123.047-.196.146-.244a3.6 3.6 0 0 0 2.162-2.161A3.62 3.62 0 0 0 8.24 3.67c-.073-.051-.146-.146-.146-.244v-.34c0-.05 0-.072.025-.098" fill="#2775ca"/></svg>