<svg viewBox="0 0 16 16" fill="none" xmlns="http://www.w3.org/2000/svg"><path d="M12 1.25c.329 0 .645.115.898.321l.104.094.094.104c.206.252.321.57.321.898v1.254c.299.018.584.127.814.316l.104.095.094.104c.206.252.32.568.321.897v2.133q.076.048.148.105l.104.094.094.104c.206.252.321.57.321.898V10a1.42 1.42 0 0 1-.667 1.2v2.133a1.42 1.42 0 0 1-1.417 1.417h-10a2.083 2.083 0 0 1-2.083-2.084V3.333A2.083 2.083 0 0 1 3.333 1.25zM2.75 12.666a.585.585 0 0 0 .583.584h9.917v-1.833H12a2.084 2.084 0 0 1 0-4.167h1.25V5.417H3.333q-.3-.001-.583-.085zM12 8.75a.583.583 0 0 0 0 1.167h1.917V8.75zm-8.667-6a.583.583 0 0 0 0 1.167h8.584V2.75z" fill="currentColor"/></svg>